# Blender 3.5.0
# www.blender.org
mtllib playre.mtl
o Cube
v 1.000000 1.000000 -1.000000
v 1.000000 -1.000000 -1.000000
v 1.000000 1.000000 1.000000
v 1.000000 -1.000000 1.000000
v -1.000000 1.000000 -1.000000
v -1.000000 -1.000000 -1.000000
v -1.000000 1.000000 1.000000
v -1.000000 -1.000000 1.000000
vn -0.0000 1.0000 -0.0000
vn -0.0000 -0.0000 1.0000
vn -1.0000 -0.0000 -0.0000
vn -0.0000 -1.0000 -0.0000
vn 1.0000 -0.0000 -0.0000
vn -0.0000 -0.0000 -1.0000
vt 0.625000 0.500000
vt 0.375000 0.500000
vt 0.625000 0.750000
vt 0.375000 0.750000
vt 0.875000 0.500000
vt 0.625000 0.250000
vt 0.125000 0.500000
vt 0.375000 0.250000
vt 0.875000 0.750000
vt 0.625000 1.000000
vt 0.625000 0.000000
vt 0.375000 0.000000
vt 0.375000 1.000000
vt 0.125000 0.750000
s 0
usemtl Material
f 5/5/1 3/3/1 1/1/1
f 3/3/2 8/13/2 4/4/2
f 7/11/3 6/8/3 8/12/3
f 2/2/4 8/14/4 6/7/4
f 1/1/5 4/4/5 2/2/5
f 5/6/6 2/2/6 6/8/6
f 5/5/1 7/9/1 3/3/1
f 3/3/2 7/10/2 8/13/2
f 7/11/3 5/6/3 6/8/3
f 2/2/4 4/4/4 8/14/4
f 1/1/5 3/3/5 4/4/5
f 5/6/6 1/1/6 2/2/6
o 立方体
v -2.596119 -0.014198 -1.710820
v -2.596119 0.028756 -1.710820
v -2.572517 -0.014198 -1.758401
v -2.572517 0.028756 -1.758401
v -0.941311 0.209628 -0.546137
v -0.941311 0.374761 -0.546137
v -0.874386 0.209628 -0.681056
v -0.874386 0.374761 -0.681056
v -1.770228 0.209628 -1.125428
v -1.770228 0.374761 -1.125428
v -1.837153 0.209628 -0.990508
v -1.837153 0.374761 -0.990508
v -2.171373 0.027907 -1.441914
v -2.216636 0.131951 -1.350664
v -2.171373 0.131951 -1.441914
v -2.216636 0.027907 -1.350664
v -2.171373 0.027907 -1.441914
v -2.216636 0.131951 -1.350664
v -2.171373 0.131951 -1.441914
v -2.216636 0.027907 -1.350664
v -2.334009 -0.045768 -1.570228
v -2.370490 0.033508 -1.496682
v -2.334009 0.033508 -1.570228
v -2.370490 -0.045768 -1.496682
vn -0.8958 -0.0000 -0.4444
vn 0.4444 -0.0000 -0.8958
vn 0.8958 -0.0000 0.4444
vn -0.6884 -0.0000 0.7253
vn -0.0000 -1.0000 -0.0000
vn -0.0143 0.9999 -0.0071
vn -0.0000 1.0000 -0.0000
vn 0.3060 -0.9399 0.1518
vn -0.4444 -0.0000 0.8958
vn 0.6194 -0.0000 -0.7851
vn -0.3913 0.8995 -0.1941
vn -0.0946 -0.9944 -0.0469
vt 0.375000 0.000000
vt 0.375000 1.000000
vt 0.125000 0.750000
vt 0.625000 0.000000
vt 0.625000 1.000000
vt 0.875000 0.750000
vt 0.125000 0.500000
vt 0.375000 0.250000
vt 0.875000 0.500000
vt 0.625000 0.250000
vt 0.375000 0.750000
vt 0.625000 0.750000
vt 0.375000 0.500000
vt 0.625000 0.500000
vt 0.250000 0.500000
vt 0.375000 0.375000
vt 0.625000 0.375000
vt 0.750000 0.500000
vt 0.250000 0.750000
vt 0.375000 0.875000
vt 0.750000 0.750000
vt 0.625000 0.875000
vt 0.375000 0.312500
vt 0.187500 0.500000
vt 0.812500 0.750000
vt 0.625000 0.937500
vt 0.625000 0.312500
vt 0.812500 0.500000
vt 0.187500 0.750000
vt 0.375000 0.937500
vt 0.187500 0.500000
vt 0.375000 0.312500
vt 0.812500 0.750000
vt 0.625000 0.937500
vt 0.635758 0.312500
vt 0.812500 0.500000
vt 0.187500 0.763753
vt 0.375000 0.937500
vt 0.375000 0.287161
vt 0.162161 0.500000
vt 0.837839 0.750000
vt 0.625000 0.962839
vt 0.631396 0.287161
vt 0.837839 0.500000
vt 0.375000 0.962839
vt 0.162161 0.758177
s 0
usemtl マテリアル
f 10/18/7 11/22/7 9/15/7
f 18/31/8 15/27/8 17/30/8
f 16/28/9 13/25/9 15/27/9
f 30/56/10 9/16/10 32/59/10
f 15/27/11 19/33/11 17/29/11
f 31/58/12 10/20/12 30/55/12
f 18/32/13 14/26/13 16/28/13
f 17/29/14 24/43/14 21/38/14
f 14/26/15 19/34/15 13/25/15
f 23/41/16 17/30/16 21/37/16
f 25/46/13 23/41/13 21/37/13
f 25/45/13 24/43/13 28/51/13
f 18/32/17 22/39/17 20/35/17
f 19/34/10 22/40/10 24/44/10
f 25/45/14 32/60/14 29/54/14
f 31/57/16 25/46/16 29/53/16
f 23/42/13 26/47/13 22/39/13
f 24/44/13 26/48/13 28/52/13
f 11/22/16 31/57/16 29/53/16
f 29/54/18 9/17/18 11/21/18
f 27/50/17 30/55/17 26/47/17
f 28/52/10 30/56/10 32/59/10
f 10/18/7 12/24/7 11/22/7
f 18/31/8 16/28/8 15/27/8
f 16/28/9 14/26/9 13/25/9
f 30/56/10 10/19/10 9/16/10
f 15/27/11 13/25/11 19/33/11
f 31/58/12 12/23/12 10/20/12
f 18/32/13 20/35/13 14/26/13
f 17/29/14 19/33/14 24/43/14
f 14/26/15 20/36/15 19/34/15
f 23/41/16 18/31/16 17/30/16
f 25/46/13 27/49/13 23/41/13
f 25/45/13 21/38/13 24/43/13
f 18/32/17 23/42/17 22/39/17
f 19/34/10 20/36/10 22/40/10
f 25/45/14 28/51/14 32/60/14
f 31/57/16 27/49/16 25/46/16
f 23/42/13 27/50/13 26/47/13
f 24/44/13 22/40/13 26/48/13
f 11/22/16 12/24/16 31/57/16
f 29/54/18 32/60/18 9/17/18
f 27/50/17 31/58/17 30/55/17
f 28/52/10 26/48/10 30/56/10
